<?xml version="1.0" encoding="UTF-8"?>
<svg width="84.6668mm" height="84.6667mm" version="1.1" viewBox="0 0 84.6668 84.6667" xmlns="http://www.w3.org/2000/svg" xmlns:xlink="http://www.w3.org/1999/xlink"><defs><linearGradient id="linearGradient2303" x2="320" y1="160" y2="160" gradientTransform="scale(.264583)" gradientUnits="userSpaceOnUse"><stop stop-color="#000000" offset="0"/><stop stop-color="#666666" offset="1"/></linearGradient></defs><path d="m25.8506 0c-14.3213 0-25.8506 11.347-25.8506 25.4419v33.783c0 14.0948 11.5293 25.4419 25.8506 25.4419h32.9654c14.3213 0 25.8506-11.347 25.8506-25.4419v-16.2404a1.76375 1.76375 0 0 1-0.40101 1.14153l-3.74809 4.55631a1.76375 1.76375 0 0 1-2.48409 0.235129l-34.5741-28.4758a1.79168 1.79168 0 0 0-2.24844 0l-34.5726 28.4758a1.76375 1.76375 0 0 1-2.48564-0.239778l-3.74758-4.55631a1.76375 1.76375 0 0 1 0.235128-2.48408l37.205-30.6405a7.05501 7.05501 0 0 1 8.96534 0l13.1594 10.8262v-10.6722a1.76375 1.76375 0 0 1 1.76371-1.76372h8.23051a1.76375 1.76375 0 0 1 1.76372 1.76372v20.3584l12.2876 10.1281a1.76375 1.76375 0 0 1 0.65112 1.3472v-17.5426c0-14.0948-11.5294-25.4419-25.8506-25.4419zm16.446 26.0713a1.79168 1.79168 0 0 1 1.16272 0.396359l27.0929 22.3025v24.105a2.35167 2.35167 0 0 1-2.3518 2.35128l-16.4646-0.04547a2.35167 2.35167 0 0 1-2.35128-2.35903v-14.057a2.35167 2.35167 0 0 0-2.35179-2.3518h-9.40666a2.35167 2.35167 0 0 0-2.35179 2.3518v14.0674a2.35167 2.35167 0 0 1-2.33991 2.3518l-16.4703 0.04237a2.35167 2.35167 0 0 1-2.35179-2.35128v-24.0885l27.0986-22.319a1.79168 1.79168 0 0 1 1.08572-0.396359z" fill="url(#linearGradient2303)" style="paint-order:markers stroke fill"/></svg>
